<?xml version="1.0" encoding="UTF-8" standalone="no"?>
<!DOCTYPE svg PUBLIC "-//W3C//DTD SVG 1.1//EN"
 "http://www.w3.org/Graphics/SVG/1.1/DTD/svg11.dtd">
<!-- Generated by graphviz version 2.43.0 (0)
 -->
<!-- Title: xnetwork/classes/__init__.h Pages: 1 -->
<svg width="804pt" height="258pt"
 viewBox="0.00 0.00 804.00 258.00" xmlns="http://www.w3.org/2000/svg" xmlns:xlink="http://www.w3.org/1999/xlink">
<g id="graph0" class="graph" transform="scale(1 1) rotate(0) translate(4 254)">
<title>xnetwork/classes/__init__.h</title>
<!-- Node1 -->
<g id="Node000001" class="node">
<title>Node1</title>
<g id="a_Node000001"><a xlink:title=" ">
<polygon fill="#999999" stroke="#666666" points="556.5,-250 446.5,-250 446.5,-220 556.5,-220 556.5,-250"/>
<text text-anchor="start" x="454.5" y="-238" font-family="Helvetica,sans-Serif" font-size="10.00">xnetwork/classes/_</text>
<text text-anchor="middle" x="501.5" y="-227" font-family="Helvetica,sans-Serif" font-size="10.00">_init__.h</text>
</a>
</g>
</g>
<!-- Node2 -->
<g id="Node000002" class="node">
<title>Node2</title>
<g id="a_Node000002"><a xlink:href="digraphs_8hpp.html" target="_top" xlink:title="Directed graph data structure for XNetwork.">
<polygon fill="white" stroke="#666666" points="436.5,-184 356.5,-184 356.5,-165 436.5,-165 436.5,-184"/>
<text text-anchor="middle" x="396.5" y="-172" font-family="Helvetica,sans-Serif" font-size="10.00">digraphs.hpp</text>
</a>
</g>
</g>
<!-- Node1&#45;&gt;Node2 -->
<g id="edge1_Node000001_Node000002" class="edge">
<title>Node1&#45;&gt;Node2</title>
<g id="a_edge1_Node000001_Node000002"><a xlink:title=" ">
<path fill="none" stroke="#63b8ff" d="M476.35,-219.99C459.61,-210.66 437.73,-198.47 421.11,-189.21"/>
<polygon fill="#63b8ff" stroke="#63b8ff" points="422.45,-185.95 412.01,-184.14 419.04,-192.06 422.45,-185.95"/>
</a>
</g>
</g>
<!-- Node8 -->
<g id="Node000008" class="node">
<title>Node8</title>
<g id="a_Node000008"><a xlink:href="coreviews_8hpp.html" target="_top" xlink:title="Read&#45;only view classes for graph data structures.">
<polygon fill="white" stroke="#666666" points="796,-74 621,-74 621,-55 796,-55 796,-74"/>
<text text-anchor="middle" x="708.5" y="-62" font-family="Helvetica,sans-Serif" font-size="10.00">xnetwork/classes/coreviews.hpp</text>
</a>
</g>
</g>
<!-- Node1&#45;&gt;Node8 -->
<g id="edge20_Node000001_Node000008" class="edge">
<title>Node1&#45;&gt;Node8</title>
<g id="a_edge20_Node000001_Node000008"><a xlink:title=" ">
<path fill="none" stroke="#63b8ff" d="M520.57,-219.75C546.99,-199.89 596.03,-162.53 636.5,-129 655.6,-113.18 676.82,-94.3 691.24,-81.26"/>
<polygon fill="#63b8ff" stroke="#63b8ff" points="693.83,-83.63 698.88,-74.32 689.13,-78.45 693.83,-83.63"/>
</a>
</g>
</g>
<!-- Node10 -->
<g id="Node000010" class="node">
<title>Node10</title>
<g id="a_Node000010"><a xlink:href="graph_8hpp.html" target="_top" xlink:title="Undirected graph data structure for XNetwork.">
<polygon fill="white" stroke="#666666" points="578,-129 425,-129 425,-110 578,-110 578,-129"/>
<text text-anchor="middle" x="501.5" y="-117" font-family="Helvetica,sans-Serif" font-size="10.00">xnetwork/classes/graph.hpp</text>
</a>
</g>
</g>
<!-- Node1&#45;&gt;Node10 -->
<g id="edge19_Node000001_Node000010" class="edge">
<title>Node1&#45;&gt;Node10</title>
<g id="a_edge19_Node000001_Node000010"><a xlink:title=" ">
<path fill="none" stroke="#63b8ff" d="M501.5,-219.63C501.5,-199.21 501.5,-161.81 501.5,-139.24"/>
<polygon fill="#63b8ff" stroke="#63b8ff" points="505,-139.23 501.5,-129.23 498,-139.23 505,-139.23"/>
</a>
</g>
</g>
<!-- Node12 -->
<g id="Node000012" class="node">
<title>Node12</title>
<g id="a_Node000012"><a xlink:href="reportviews_8hpp.html" target="_top" xlink:title="View classes for nodes, edges, and degrees in XNetwork graphs.">
<polygon fill="white" stroke="#666666" points="183,-74 0,-74 0,-55 183,-55 183,-74"/>
<text text-anchor="middle" x="91.5" y="-62" font-family="Helvetica,sans-Serif" font-size="10.00">xnetwork/classes/reportviews.hpp</text>
</a>
</g>
</g>
<!-- Node1&#45;&gt;Node12 -->
<g id="edge23_Node000001_Node000012" class="edge">
<title>Node1&#45;&gt;Node12</title>
<g id="a_edge23_Node000001_Node000012"><a xlink:title=" ">
<path fill="none" stroke="#63b8ff" d="M452.93,-219.98C393.32,-202.06 289.78,-168.56 205.5,-129 173.02,-113.75 137.1,-93.07 114.42,-79.51"/>
<polygon fill="#63b8ff" stroke="#63b8ff" points="115.93,-76.33 105.56,-74.17 112.32,-82.33 115.93,-76.33"/>
</a>
</g>
</g>
<!-- Node13 -->
<g id="Node000013" class="node">
<title>Node13</title>
<g id="a_Node000013"><a xlink:href="filters_8h.html" target="_top" xlink:title=" ">
<polygon fill="white" stroke="#666666" points="764,-184 711,-184 711,-165 764,-165 764,-184"/>
<text text-anchor="middle" x="737.5" y="-172" font-family="Helvetica,sans-Serif" font-size="10.00">filters.h</text>
</a>
</g>
</g>
<!-- Node1&#45;&gt;Node13 -->
<g id="edge21_Node000001_Node000013" class="edge">
<title>Node1&#45;&gt;Node13</title>
<g id="a_edge21_Node000001_Node000013"><a xlink:title=" ">
<path fill="none" stroke="#63b8ff" d="M556.53,-220.36C601.04,-209.32 662.46,-194.1 701.07,-184.53"/>
<polygon fill="#63b8ff" stroke="#63b8ff" points="701.98,-187.91 710.84,-182.11 700.29,-181.12 701.98,-187.91"/>
</a>
</g>
</g>
<!-- Node3 -->
<g id="Node000003" class="node">
<title>Node3</title>
<g id="a_Node000003"><a xlink:title=" ">
<polygon fill="#e0e0e0" stroke="#999999" points="602.5,-74 550.5,-74 550.5,-55 602.5,-55 602.5,-74"/>
<text text-anchor="middle" x="576.5" y="-62" font-family="Helvetica,sans-Serif" font-size="10.00">cassert</text>
</a>
</g>
</g>
<!-- Node2&#45;&gt;Node3 -->
<g id="edge2_Node000002_Node000003" class="edge">
<title>Node2&#45;&gt;Node3</title>
<g id="a_edge2_Node000002_Node000003"><a xlink:title=" ">
<path fill="none" stroke="#63b8ff" d="M436.86,-169.84C486.99,-164.35 568.19,-152.1 586.5,-129 596.65,-116.19 591.92,-97.26 586,-83.4"/>
<polygon fill="#63b8ff" stroke="#63b8ff" points="589.16,-81.87 581.69,-74.36 582.84,-84.89 589.16,-81.87"/>
</a>
</g>
</g>
<!-- Node4 -->
<g id="Node000004" class="node">
<title>Node4</title>
<g id="a_Node000004"><a xlink:title=" ">
<polygon fill="#e0e0e0" stroke="#999999" points="312,-74 201,-74 201,-55 312,-55 312,-74"/>
<text text-anchor="middle" x="256.5" y="-62" font-family="Helvetica,sans-Serif" font-size="10.00">py2cpp/py2cpp.hpp</text>
</a>
</g>
</g>
<!-- Node2&#45;&gt;Node4 -->
<g id="edge3_Node000002_Node000004" class="edge">
<title>Node2&#45;&gt;Node4</title>
<g id="a_edge3_Node000002_Node000004"><a xlink:title=" ">
<path fill="none" stroke="#63b8ff" d="M356.27,-168.14C329.92,-162.6 296.58,-151.42 275.5,-129 264.06,-116.83 259.48,-98.04 257.67,-84.05"/>
<polygon fill="#63b8ff" stroke="#63b8ff" points="261.15,-83.71 256.72,-74.08 254.18,-84.37 261.15,-83.71"/>
</a>
</g>
</g>
<!-- Node5 -->
<g id="Node000005" class="node">
<title>Node5</title>
<g id="a_Node000005"><a xlink:title=" ">
<polygon fill="#e0e0e0" stroke="#999999" points="399,-74 330,-74 330,-55 399,-55 399,-74"/>
<text text-anchor="middle" x="364.5" y="-62" font-family="Helvetica,sans-Serif" font-size="10.00">type_traits</text>
</a>
</g>
</g>
<!-- Node2&#45;&gt;Node5 -->
<g id="edge4_Node000002_Node000005" class="edge">
<title>Node2&#45;&gt;Node5</title>
<g id="a_edge4_Node000002_Node000005"><a xlink:title=" ">
<path fill="none" stroke="#63b8ff" d="M393.74,-164.99C390.87,-156.05 386.26,-141.57 382.5,-129 377.98,-113.89 373.12,-96.66 369.59,-83.97"/>
<polygon fill="#63b8ff" stroke="#63b8ff" points="372.91,-82.85 366.87,-74.15 366.16,-84.72 372.91,-82.85"/>
</a>
</g>
</g>
<!-- Node6 -->
<g id="Node000006" class="node">
<title>Node6</title>
<g id="a_Node000006"><a xlink:title=" ">
<polygon fill="#e0e0e0" stroke="#999999" points="330,-129 285,-129 285,-110 330,-110 330,-129"/>
<text text-anchor="middle" x="307.5" y="-117" font-family="Helvetica,sans-Serif" font-size="10.00">utility</text>
</a>
</g>
</g>
<!-- Node2&#45;&gt;Node6 -->
<g id="edge5_Node000002_Node000006" class="edge">
<title>Node2&#45;&gt;Node6</title>
<g id="a_edge5_Node000002_Node000006"><a xlink:title=" ">
<path fill="none" stroke="#63b8ff" d="M382.2,-164.98C368.4,-156.77 347.26,-144.18 330.99,-134.49"/>
<polygon fill="#63b8ff" stroke="#63b8ff" points="332.44,-131.28 322.06,-129.17 328.86,-137.29 332.44,-131.28"/>
</a>
</g>
</g>
<!-- Node7 -->
<g id="Node000007" class="node">
<title>Node7</title>
<g id="a_Node000007"><a xlink:title=" ">
<polygon fill="#e0e0e0" stroke="#999999" points="464,-74 417,-74 417,-55 464,-55 464,-74"/>
<text text-anchor="middle" x="440.5" y="-62" font-family="Helvetica,sans-Serif" font-size="10.00">vector</text>
</a>
</g>
</g>
<!-- Node2&#45;&gt;Node7 -->
<g id="edge6_Node000002_Node000007" class="edge">
<title>Node2&#45;&gt;Node7</title>
<g id="a_edge6_Node000002_Node000007"><a xlink:title=" ">
<path fill="none" stroke="#63b8ff" d="M398.49,-164.66C401.44,-152.19 407.5,-128.86 415.5,-110 419.44,-100.72 424.81,-90.9 429.57,-82.86"/>
<polygon fill="#63b8ff" stroke="#63b8ff" points="432.71,-84.43 434.93,-74.07 426.73,-80.79 432.71,-84.43"/>
</a>
</g>
</g>
<!-- Node2&#45;&gt;Node8 -->
<g id="edge7_Node000002_Node000008" class="edge">
<title>Node2&#45;&gt;Node8</title>
<g id="a_edge7_Node000002_Node000008"><a xlink:title=" ">
<path fill="none" stroke="#63b8ff" d="M436.56,-168.9C479.12,-163.1 547.81,-151.1 603.5,-129 635.41,-116.34 668.75,-94.45 689.08,-79.98"/>
<polygon fill="#63b8ff" stroke="#63b8ff" points="691.16,-82.79 697.2,-74.09 687.05,-77.12 691.16,-82.79"/>
</a>
</g>
</g>
<!-- Node2&#45;&gt;Node10 -->
<g id="edge9_Node000002_Node000010" class="edge">
<title>Node2&#45;&gt;Node10</title>
<g id="a_edge9_Node000002_Node000010"><a xlink:title=" ">
<path fill="none" stroke="#63b8ff" d="M413.37,-164.98C430.11,-156.54 456,-143.47 475.39,-133.68"/>
<polygon fill="#63b8ff" stroke="#63b8ff" points="476.97,-136.8 484.32,-129.17 473.82,-130.55 476.97,-136.8"/>
</a>
</g>
</g>
<!-- Node2&#45;&gt;Node12 -->
<g id="edge18_Node000002_Node000012" class="edge">
<title>Node2&#45;&gt;Node12</title>
<g id="a_edge18_Node000002_Node000012"><a xlink:title=" ">
<path fill="none" stroke="#63b8ff" d="M369.29,-164.98C341.75,-156.26 298,-142.17 260.5,-129 212.05,-111.98 156.4,-90.74 122.61,-77.65"/>
<polygon fill="#63b8ff" stroke="#63b8ff" points="123.86,-74.38 113.27,-74.02 121.32,-80.9 123.86,-74.38"/>
</a>
</g>
</g>
<!-- Node9 -->
<g id="Node000009" class="node">
<title>Node9</title>
<g id="a_Node000009"><a xlink:title=" ">
<polygon fill="#e0e0e0" stroke="#999999" points="426,-19 373,-19 373,0 426,0 426,-19"/>
<text text-anchor="middle" x="399.5" y="-7" font-family="Helvetica,sans-Serif" font-size="10.00">iterator</text>
</a>
</g>
</g>
<!-- Node8&#45;&gt;Node9 -->
<g id="edge8_Node000008_Node000009" class="edge">
<title>Node8&#45;&gt;Node9</title>
<g id="a_edge8_Node000008_Node000009"><a xlink:title=" ">
<path fill="none" stroke="#63b8ff" d="M658.85,-54.98C596.67,-44.32 491.57,-26.29 436.19,-16.79"/>
<polygon fill="#63b8ff" stroke="#63b8ff" points="436.57,-13.31 426.12,-15.07 435.39,-20.21 436.57,-13.31"/>
</a>
</g>
</g>
<!-- Node10&#45;&gt;Node3 -->
<g id="edge10_Node000010_Node000003" class="edge">
<title>Node10&#45;&gt;Node3</title>
<g id="a_edge10_Node000010_Node000003"><a xlink:title=" ">
<path fill="none" stroke="#63b8ff" d="M513.55,-109.98C524.96,-101.92 542.33,-89.65 555.93,-80.03"/>
<polygon fill="#63b8ff" stroke="#63b8ff" points="558.08,-82.8 564.23,-74.17 554.04,-77.08 558.08,-82.8"/>
</a>
</g>
</g>
<!-- Node10&#45;&gt;Node4 -->
<g id="edge12_Node000010_Node000004" class="edge">
<title>Node10&#45;&gt;Node4</title>
<g id="a_edge12_Node000010_Node000004"><a xlink:title=" ">
<path fill="none" stroke="#63b8ff" d="M462.14,-109.98C419.76,-100.82 352.24,-86.21 306.22,-76.26"/>
<polygon fill="#63b8ff" stroke="#63b8ff" points="306.69,-72.78 296.17,-74.08 305.21,-79.62 306.69,-72.78"/>
</a>
</g>
</g>
<!-- Node10&#45;&gt;Node5 -->
<g id="edge13_Node000010_Node000005" class="edge">
<title>Node10&#45;&gt;Node5</title>
<g id="a_edge13_Node000010_Node000005"><a xlink:title=" ">
<path fill="none" stroke="#63b8ff" d="M479.49,-109.98C457.05,-101.3 422.02,-87.75 396.51,-77.88"/>
<polygon fill="#63b8ff" stroke="#63b8ff" points="397.5,-74.51 386.91,-74.17 394.98,-81.04 397.5,-74.51"/>
</a>
</g>
</g>
<!-- Node10&#45;&gt;Node7 -->
<g id="edge14_Node000010_Node000007" class="edge">
<title>Node10&#45;&gt;Node7</title>
<g id="a_edge14_Node000010_Node000007"><a xlink:title=" ">
<path fill="none" stroke="#63b8ff" d="M491.7,-109.98C482.68,-102.15 469.09,-90.34 458.18,-80.86"/>
<polygon fill="#63b8ff" stroke="#63b8ff" points="460.32,-78.09 450.48,-74.17 455.73,-83.37 460.32,-78.09"/>
</a>
</g>
</g>
<!-- Node10&#45;&gt;Node8 -->
<g id="edge15_Node000010_Node000008" class="edge">
<title>Node10&#45;&gt;Node8</title>
<g id="a_edge15_Node000010_Node000008"><a xlink:title=" ">
<path fill="none" stroke="#63b8ff" d="M534.76,-109.98C570.11,-100.93 626.17,-86.58 665.01,-76.64"/>
<polygon fill="#63b8ff" stroke="#63b8ff" points="666.16,-79.95 674.98,-74.08 664.43,-73.17 666.16,-79.95"/>
</a>
</g>
</g>
<!-- Node11 -->
<g id="Node000011" class="node">
<title>Node11</title>
<g id="a_Node000011"><a xlink:title=" ">
<polygon fill="#e0e0e0" stroke="#999999" points="532.5,-74 482.5,-74 482.5,-55 532.5,-55 532.5,-74"/>
<text text-anchor="middle" x="507.5" y="-62" font-family="Helvetica,sans-Serif" font-size="10.00">cstdint</text>
</a>
</g>
</g>
<!-- Node10&#45;&gt;Node11 -->
<g id="edge11_Node000010_Node000011" class="edge">
<title>Node10&#45;&gt;Node11</title>
<g id="a_edge11_Node000010_Node000011"><a xlink:title=" ">
<path fill="none" stroke="#63b8ff" d="M502.49,-109.75C503.28,-102.8 504.4,-92.85 505.39,-84.13"/>
<polygon fill="#63b8ff" stroke="#63b8ff" points="508.88,-84.42 506.53,-74.09 501.92,-83.63 508.88,-84.42"/>
</a>
</g>
</g>
<!-- Node10&#45;&gt;Node12 -->
<g id="edge16_Node000010_Node000012" class="edge">
<title>Node10&#45;&gt;Node12</title>
<g id="a_edge16_Node000010_Node000012"><a xlink:title=" ">
<path fill="none" stroke="#63b8ff" d="M435.63,-109.98C362.51,-100.53 244.69,-85.3 167.67,-75.35"/>
<polygon fill="#63b8ff" stroke="#63b8ff" points="167.92,-71.85 157.55,-74.04 167.02,-78.79 167.92,-71.85"/>
</a>
</g>
</g>
<!-- Node12&#45;&gt;Node9 -->
<g id="edge17_Node000012_Node000009" class="edge">
<title>Node12&#45;&gt;Node9</title>
<g id="a_edge17_Node000012_Node000009"><a xlink:title=" ">
<path fill="none" stroke="#63b8ff" d="M140.99,-54.98C202.97,-44.32 307.72,-26.29 362.93,-16.79"/>
<polygon fill="#63b8ff" stroke="#63b8ff" points="363.7,-20.21 372.97,-15.07 362.52,-13.31 363.7,-20.21"/>
</a>
</g>
</g>
<!-- Node14 -->
<g id="Node000014" class="node">
<title>Node14</title>
<g id="a_Node000014"><a xlink:title=" ">
<polygon fill="#e0e0e0" stroke="#999999" points="753.5,-129 721.5,-129 721.5,-110 753.5,-110 753.5,-129"/>
<text text-anchor="middle" x="737.5" y="-117" font-family="Helvetica,sans-Serif" font-size="10.00">set</text>
</a>
</g>
</g>
<!-- Node13&#45;&gt;Node14 -->
<g id="edge22_Node000013_Node000014" class="edge">
<title>Node13&#45;&gt;Node14</title>
<g id="a_edge22_Node000013_Node000014"><a xlink:title=" ">
<path fill="none" stroke="#63b8ff" d="M737.5,-164.75C737.5,-157.8 737.5,-147.85 737.5,-139.13"/>
<polygon fill="#63b8ff" stroke="#63b8ff" points="741,-139.09 737.5,-129.09 734,-139.09 741,-139.09"/>
</a>
</g>
</g>
</g>
</svg>
