<?xml version="1.0" encoding="UTF-8" standalone="no"?>
<!DOCTYPE svg PUBLIC "-//W3C//DTD SVG 1.1//EN"
 "http://www.w3.org/Graphics/SVG/1.1/DTD/svg11.dtd">
<!-- Generated by graphviz version 2.43.0 (0)
 -->
<!-- Title: xnetwork/detail/blossom.hpp Pages: 1 -->
<svg width="252pt" height="82pt"
 viewBox="0.00 0.00 252.00 82.00" xmlns="http://www.w3.org/2000/svg" xmlns:xlink="http://www.w3.org/1999/xlink">
<g id="graph0" class="graph" transform="scale(1 1) rotate(0) translate(4 78)">
<title>xnetwork/detail/blossom.hpp</title>
<!-- Node1 -->
<g id="Node000001" class="node">
<title>Node1</title>
<g id="a_Node000001"><a xlink:title="Minimum&#45;weight perfect matching via Edmonds&#39; blossom algorithm.">
<polygon fill="#999999" stroke="#666666" points="206.5,-74 48.5,-74 48.5,-55 206.5,-55 206.5,-74"/>
<text text-anchor="middle" x="127.5" y="-62" font-family="Helvetica,sans-Serif" font-size="10.00">xnetwork/detail/blossom.hpp</text>
</a>
</g>
</g>
<!-- Node2 -->
<g id="Node000002" class="node">
<title>Node2</title>
<g id="a_Node000002"><a xlink:href="hadlock_8hpp.html" target="_top" xlink:title=" ">
<polygon fill="white" stroke="#666666" points="125,-19 0,-19 0,0 125,0 125,-19"/>
<text text-anchor="middle" x="62.5" y="-7" font-family="Helvetica,sans-Serif" font-size="10.00">xnetwork/hadlock.hpp</text>
</a>
</g>
</g>
<!-- Node1&#45;&gt;Node2 -->
<g id="edge1_Node000001_Node000002" class="edge">
<title>Node1&#45;&gt;Node2</title>
<g id="a_edge1_Node000001_Node000002"><a xlink:title=" ">
<path fill="none" stroke="#63b8ff" d="M109.23,-48.6C97.58,-39.11 82.9,-27.13 73.13,-19.17"/>
<polygon fill="#63b8ff" stroke="#63b8ff" points="107.09,-51.38 117.06,-54.98 111.52,-45.95 107.09,-51.38"/>
</a>
</g>
</g>
<!-- Node3 -->
<g id="Node000003" class="node">
<title>Node3</title>
<g id="a_Node000003"><a xlink:href="tsp_8hpp.html" target="_top" xlink:title="Traveling Salesman Problem (TSP) approximation algorithms.">
<polygon fill="white" stroke="#666666" points="244,-19 143,-19 143,0 244,0 244,-19"/>
<text text-anchor="middle" x="193.5" y="-7" font-family="Helvetica,sans-Serif" font-size="10.00">xnetwork/tsp.hpp</text>
</a>
</g>
</g>
<!-- Node1&#45;&gt;Node3 -->
<g id="edge2_Node000001_Node000003" class="edge">
<title>Node1&#45;&gt;Node3</title>
<g id="a_edge2_Node000001_Node000003"><a xlink:title=" ">
<path fill="none" stroke="#63b8ff" d="M146.05,-48.6C157.88,-39.11 172.79,-27.13 182.7,-19.17"/>
<polygon fill="#63b8ff" stroke="#63b8ff" points="143.71,-45.99 138.1,-54.98 148.09,-51.45 143.71,-45.99"/>
</a>
</g>
</g>
</g>
</svg>
