<?xml version="1.0" encoding="UTF-8" standalone="no"?>
<!DOCTYPE svg PUBLIC "-//W3C//DTD SVG 1.1//EN"
 "http://www.w3.org/Graphics/SVG/1.1/DTD/svg11.dtd">
<!-- Generated by graphviz version 2.43.0 (0)
 -->
<!-- Title: hadlock_component_flow Pages: 1 -->
<svg width="187pt" height="416pt"
 viewBox="0.00 0.00 187.00 416.00" xmlns="http://www.w3.org/2000/svg" xmlns:xlink="http://www.w3.org/1999/xlink">
<g id="graph0" class="graph" transform="scale(1 1) rotate(0) translate(4 412)">
<title>hadlock_component_flow</title>
<!-- step1 -->
<g id="node1" class="node">
<title>step1</title>
<polygon fill="#a9cce3" stroke="black" points="166.5,-408 12.5,-408 12.5,-370 166.5,-370 166.5,-408"/>
<text text-anchor="middle" x="89.5" y="-392.8" font-family="Times,serif" font-size="14.00">1. Build dual graph</text>
<text text-anchor="middle" x="89.5" y="-377.8" font-family="Times,serif" font-size="14.00">faces &#45;&gt; vertices</text>
</g>
<!-- step2 -->
<g id="node2" class="node">
<title>step2</title>
<polygon fill="#d4e6f1" stroke="black" points="165.5,-334 13.5,-334 13.5,-296 165.5,-296 165.5,-334"/>
<text text-anchor="middle" x="89.5" y="-318.8" font-family="Times,serif" font-size="14.00">2. Find odd&#45;degree</text>
<text text-anchor="middle" x="89.5" y="-303.8" font-family="Times,serif" font-size="14.00">faces</text>
</g>
<!-- step1&#45;&gt;step2 -->
<g id="edge1" class="edge">
<title>step1&#45;&gt;step2</title>
<path fill="none" stroke="black" d="M89.5,-369.83C89.5,-362.13 89.5,-352.97 89.5,-344.42"/>
<polygon fill="black" stroke="black" points="93,-344.41 89.5,-334.41 86,-344.41 93,-344.41"/>
</g>
<!-- step3 -->
<g id="node3" class="node">
<title>step3</title>
<polygon fill="#d4e6f1" stroke="black" points="168.5,-260 10.5,-260 10.5,-222 168.5,-222 168.5,-260"/>
<text text-anchor="middle" x="89.5" y="-244.8" font-family="Times,serif" font-size="14.00">3. All&#45;pairs shortest</text>
<text text-anchor="middle" x="89.5" y="-229.8" font-family="Times,serif" font-size="14.00">paths on dual</text>
</g>
<!-- step2&#45;&gt;step3 -->
<g id="edge2" class="edge">
<title>step2&#45;&gt;step3</title>
<path fill="none" stroke="black" d="M89.5,-295.83C89.5,-288.13 89.5,-278.97 89.5,-270.42"/>
<polygon fill="black" stroke="black" points="93,-270.41 89.5,-260.41 86,-270.41 93,-270.41"/>
</g>
<!-- step4 -->
<g id="node4" class="node">
<title>step4</title>
<polygon fill="#d4e6f1" stroke="black" points="175,-186 4,-186 4,-148 175,-148 175,-186"/>
<text text-anchor="middle" x="89.5" y="-170.8" font-family="Times,serif" font-size="14.00">4. Min&#45;weight perfect</text>
<text text-anchor="middle" x="89.5" y="-155.8" font-family="Times,serif" font-size="14.00">matching (MWPM)</text>
</g>
<!-- step3&#45;&gt;step4 -->
<g id="edge3" class="edge">
<title>step3&#45;&gt;step4</title>
<path fill="none" stroke="black" d="M89.5,-221.83C89.5,-214.13 89.5,-204.97 89.5,-196.42"/>
<polygon fill="black" stroke="black" points="93,-196.41 89.5,-186.41 86,-196.41 93,-196.41"/>
</g>
<!-- step5 -->
<g id="node5" class="node">
<title>step5</title>
<polygon fill="#d4e6f1" stroke="black" points="179,-112 0,-112 0,-74 179,-74 179,-112"/>
<text text-anchor="middle" x="89.5" y="-96.8" font-family="Times,serif" font-size="14.00">5. Walk matched paths</text>
<text text-anchor="middle" x="89.5" y="-81.8" font-family="Times,serif" font-size="14.00">collect primal edges</text>
</g>
<!-- step4&#45;&gt;step5 -->
<g id="edge4" class="edge">
<title>step4&#45;&gt;step5</title>
<path fill="none" stroke="black" d="M89.5,-147.83C89.5,-140.13 89.5,-130.97 89.5,-122.42"/>
<polygon fill="black" stroke="black" points="93,-122.41 89.5,-112.41 86,-122.41 93,-122.41"/>
</g>
<!-- step6 -->
<g id="node6" class="node">
<title>step6</title>
<polygon fill="#7fb3d8" stroke="black" points="178,-38 1,-38 1,0 178,0 178,-38"/>
<text text-anchor="middle" x="89.5" y="-22.8" font-family="Times,serif" font-size="14.00">6. Max cut = all edges</text>
<text text-anchor="middle" x="89.5" y="-7.8" font-family="Times,serif" font-size="14.00">not excluded</text>
</g>
<!-- step5&#45;&gt;step6 -->
<g id="edge5" class="edge">
<title>step5&#45;&gt;step6</title>
<path fill="none" stroke="black" d="M89.5,-73.83C89.5,-66.13 89.5,-56.97 89.5,-48.42"/>
<polygon fill="black" stroke="black" points="93,-48.41 89.5,-38.41 86,-48.41 93,-48.41"/>
</g>
</g>
</svg>
