<?xml version="1.0" encoding="UTF-8" standalone="no"?>
<!DOCTYPE svg PUBLIC "-//W3C//DTD SVG 1.1//EN"
 "http://www.w3.org/Graphics/SVG/1.1/DTD/svg11.dtd">
<!-- Generated by graphviz version 2.43.0 (0)
 -->
<!-- Title: xnetwork::XNetworkNoPath Pages: 1 -->
<svg width="177pt" height="258pt"
 viewBox="0.00 0.00 177.00 258.00" xmlns="http://www.w3.org/2000/svg" xmlns:xlink="http://www.w3.org/1999/xlink">
<g id="graph0" class="graph" transform="scale(1 1) rotate(0) translate(4 254)">
<title>xnetwork::XNetworkNoPath</title>
<!-- Node1 -->
<g id="Node000001" class="node">
<title>Node1</title>
<g id="a_Node000001"><a xlink:title="Exception for algorithms that should return a path when running on graphs where such a path does not ...">
<polygon fill="#999999" stroke="#666666" points="160,-19 9,-19 9,0 160,0 160,-19"/>
<text text-anchor="middle" x="84.5" y="-7" font-family="Helvetica,sans-Serif" font-size="10.00">xnetwork::XNetworkNoPath</text>
</a>
</g>
</g>
<!-- Node2 -->
<g id="Node000002" class="node">
<title>Node2</title>
<g id="a_Node000002"><a xlink:href="structxnetwork_1_1XNetworkUnfeasible.html" target="_top" xlink:title="Exception raised by algorithms trying to solve a problem instance that has no feasible solution.">
<polygon fill="white" stroke="#666666" points="169,-74 0,-74 0,-55 169,-55 169,-74"/>
<text text-anchor="middle" x="84.5" y="-62" font-family="Helvetica,sans-Serif" font-size="10.00">xnetwork::XNetworkUnfeasible</text>
</a>
</g>
</g>
<!-- Node2&#45;&gt;Node1 -->
<g id="edge1_Node000001_Node000002" class="edge">
<title>Node2&#45;&gt;Node1</title>
<g id="a_edge1_Node000001_Node000002"><a xlink:title=" ">
<path fill="none" stroke="#63b8ff" d="M84.5,-44.66C84.5,-35.93 84.5,-25.99 84.5,-19.09"/>
<polygon fill="#63b8ff" stroke="#63b8ff" points="81,-44.75 84.5,-54.75 88,-44.75 81,-44.75"/>
</a>
</g>
</g>
<!-- Node3 -->
<g id="Node000003" class="node">
<title>Node3</title>
<g id="a_Node000003"><a xlink:href="structxnetwork_1_1XNetworkAlgorithmError.html" target="_top" xlink:title="Exception for unexpected termination of algorithms.">
<polygon fill="white" stroke="#666666" points="166.5,-140 2.5,-140 2.5,-110 166.5,-110 166.5,-140"/>
<text text-anchor="start" x="10.5" y="-128" font-family="Helvetica,sans-Serif" font-size="10.00">xnetwork::XNetworkAlgorithm</text>
<text text-anchor="middle" x="84.5" y="-117" font-family="Helvetica,sans-Serif" font-size="10.00">Error</text>
</a>
</g>
</g>
<!-- Node3&#45;&gt;Node2 -->
<g id="edge2_Node000002_Node000003" class="edge">
<title>Node3&#45;&gt;Node2</title>
<g id="a_edge2_Node000002_Node000003"><a xlink:title=" ">
<path fill="none" stroke="#63b8ff" d="M84.5,-99.75C84.5,-90.72 84.5,-81.03 84.5,-74.27"/>
<polygon fill="#63b8ff" stroke="#63b8ff" points="81,-99.84 84.5,-109.84 88,-99.84 81,-99.84"/>
</a>
</g>
</g>
<!-- Node4 -->
<g id="Node000004" class="node">
<title>Node4</title>
<g id="a_Node000004"><a xlink:href="structxnetwork_1_1XNetworkException.html" target="_top" xlink:title="Base class for all XNetwork exceptions.">
<polygon fill="white" stroke="#666666" points="166.5,-195 2.5,-195 2.5,-176 166.5,-176 166.5,-195"/>
<text text-anchor="middle" x="84.5" y="-183" font-family="Helvetica,sans-Serif" font-size="10.00">xnetwork::XNetworkException</text>
</a>
</g>
</g>
<!-- Node4&#45;&gt;Node3 -->
<g id="edge3_Node000003_Node000004" class="edge">
<title>Node4&#45;&gt;Node3</title>
<g id="a_edge3_Node000003_Node000004"><a xlink:title=" ">
<path fill="none" stroke="#63b8ff" d="M84.5,-165.65C84.5,-157.36 84.5,-147.78 84.5,-140.11"/>
<polygon fill="#63b8ff" stroke="#63b8ff" points="81,-165.87 84.5,-175.87 88,-165.87 81,-165.87"/>
</a>
</g>
</g>
<!-- Node5 -->
<g id="Node000005" class="node">
<title>Node5</title>
<g id="a_Node000005"><a xlink:title=" ">
<polygon fill="white" stroke="#666666" points="136.5,-250 32.5,-250 32.5,-231 136.5,-231 136.5,-250"/>
<text text-anchor="middle" x="84.5" y="-238" font-family="Helvetica,sans-Serif" font-size="10.00">std::runtime_error</text>
</a>
</g>
</g>
<!-- Node5&#45;&gt;Node4 -->
<g id="edge4_Node000004_Node000005" class="edge">
<title>Node5&#45;&gt;Node4</title>
<g id="a_edge4_Node000004_Node000005"><a xlink:title=" ">
<path fill="none" stroke="#63b8ff" d="M84.5,-220.66C84.5,-211.93 84.5,-201.99 84.5,-195.09"/>
<polygon fill="#63b8ff" stroke="#63b8ff" points="81,-220.75 84.5,-230.75 88,-220.75 81,-220.75"/>
</a>
</g>
</g>
</g>
</svg>
