<?xml version="1.0" encoding="UTF-8" standalone="no"?>
<!DOCTYPE svg PUBLIC "-//W3C//DTD SVG 1.1//EN"
 "http://www.w3.org/Graphics/SVG/1.1/DTD/svg11.dtd">
<!-- Generated by graphviz version 2.43.0 (0)
 -->
<!-- Title: xnetwork/thread_pool.hpp Pages: 1 -->
<svg width="687pt" height="82pt"
 viewBox="0.00 0.00 687.00 82.00" xmlns="http://www.w3.org/2000/svg" xmlns:xlink="http://www.w3.org/1999/xlink">
<g id="graph0" class="graph" transform="scale(1 1) rotate(0) translate(4 78)">
<title>xnetwork/thread_pool.hpp</title>
<!-- Node1 -->
<g id="Node000001" class="node">
<title>Node1</title>
<g id="a_Node000001"><a xlink:title=" ">
<polygon fill="#999999" stroke="#666666" points="444.5,-74 300.5,-74 300.5,-55 444.5,-55 444.5,-74"/>
<text text-anchor="middle" x="372.5" y="-62" font-family="Helvetica,sans-Serif" font-size="10.00">xnetwork/thread_pool.hpp</text>
</a>
</g>
</g>
<!-- Node2 -->
<g id="Node000002" class="node">
<title>Node2</title>
<g id="a_Node000002"><a xlink:title=" ">
<polygon fill="#e0e0e0" stroke="#999999" points="107,-19 0,-19 0,0 107,0 107,-19"/>
<text text-anchor="middle" x="53.5" y="-7" font-family="Helvetica,sans-Serif" font-size="10.00">condition_variable</text>
</a>
</g>
</g>
<!-- Node1&#45;&gt;Node2 -->
<g id="edge1_Node000001_Node000002" class="edge">
<title>Node1&#45;&gt;Node2</title>
<g id="a_edge1_Node000001_Node000002"><a xlink:title=" ">
<path fill="none" stroke="#63b8ff" d="M321.25,-54.98C265.06,-45.65 174.93,-30.67 114.98,-20.71"/>
<polygon fill="#63b8ff" stroke="#63b8ff" points="115.33,-17.22 104.89,-19.04 114.18,-24.13 115.33,-17.22"/>
</a>
</g>
</g>
<!-- Node3 -->
<g id="Node000003" class="node">
<title>Node3</title>
<g id="a_Node000003"><a xlink:title=" ">
<polygon fill="#e0e0e0" stroke="#999999" points="190,-19 125,-19 125,0 190,0 190,-19"/>
<text text-anchor="middle" x="157.5" y="-7" font-family="Helvetica,sans-Serif" font-size="10.00">functional</text>
</a>
</g>
</g>
<!-- Node1&#45;&gt;Node3 -->
<g id="edge2_Node000001_Node000003" class="edge">
<title>Node1&#45;&gt;Node3</title>
<g id="a_edge2_Node000001_Node000003"><a xlink:title=" ">
<path fill="none" stroke="#63b8ff" d="M337.96,-54.98C300.42,-45.73 240.42,-30.94 200.02,-20.98"/>
<polygon fill="#63b8ff" stroke="#63b8ff" points="200.74,-17.56 190.2,-18.56 199.07,-24.35 200.74,-17.56"/>
</a>
</g>
</g>
<!-- Node4 -->
<g id="Node000004" class="node">
<title>Node4</title>
<g id="a_Node000004"><a xlink:title=" ">
<polygon fill="#e0e0e0" stroke="#999999" points="254.5,-19 208.5,-19 208.5,0 254.5,0 254.5,-19"/>
<text text-anchor="middle" x="231.5" y="-7" font-family="Helvetica,sans-Serif" font-size="10.00">future</text>
</a>
</g>
</g>
<!-- Node1&#45;&gt;Node4 -->
<g id="edge3_Node000001_Node000004" class="edge">
<title>Node1&#45;&gt;Node4</title>
<g id="a_edge3_Node000001_Node000004"><a xlink:title=" ">
<path fill="none" stroke="#63b8ff" d="M349.85,-54.98C326.65,-46.27 290.38,-32.63 264.1,-22.75"/>
<polygon fill="#63b8ff" stroke="#63b8ff" points="265.16,-19.41 254.57,-19.17 262.7,-25.97 265.16,-19.41"/>
</a>
</g>
</g>
<!-- Node5 -->
<g id="Node000005" class="node">
<title>Node5</title>
<g id="a_Node000005"><a xlink:title=" ">
<polygon fill="#e0e0e0" stroke="#999999" points="330.5,-19 272.5,-19 272.5,0 330.5,0 330.5,-19"/>
<text text-anchor="middle" x="301.5" y="-7" font-family="Helvetica,sans-Serif" font-size="10.00">memory</text>
</a>
</g>
</g>
<!-- Node1&#45;&gt;Node5 -->
<g id="edge4_Node000001_Node000005" class="edge">
<title>Node1&#45;&gt;Node5</title>
<g id="a_edge4_Node000001_Node000005"><a xlink:title=" ">
<path fill="none" stroke="#63b8ff" d="M361.09,-54.98C350.39,-47 334.16,-34.88 321.34,-25.31"/>
<polygon fill="#63b8ff" stroke="#63b8ff" points="323.22,-22.35 313.11,-19.17 319.03,-27.96 323.22,-22.35"/>
</a>
</g>
</g>
<!-- Node6 -->
<g id="Node000006" class="node">
<title>Node6</title>
<g id="a_Node000006"><a xlink:title=" ">
<polygon fill="#e0e0e0" stroke="#999999" points="396.5,-19 348.5,-19 348.5,0 396.5,0 396.5,-19"/>
<text text-anchor="middle" x="372.5" y="-7" font-family="Helvetica,sans-Serif" font-size="10.00">mutex</text>
</a>
</g>
</g>
<!-- Node1&#45;&gt;Node6 -->
<g id="edge5_Node000001_Node000006" class="edge">
<title>Node1&#45;&gt;Node6</title>
<g id="a_edge5_Node000001_Node000006"><a xlink:title=" ">
<path fill="none" stroke="#63b8ff" d="M372.5,-54.75C372.5,-47.8 372.5,-37.85 372.5,-29.13"/>
<polygon fill="#63b8ff" stroke="#63b8ff" points="376,-29.09 372.5,-19.09 369,-29.09 376,-29.09"/>
</a>
</g>
</g>
<!-- Node7 -->
<g id="Node000007" class="node">
<title>Node7</title>
<g id="a_Node000007"><a xlink:title=" ">
<polygon fill="#e0e0e0" stroke="#999999" points="462,-19 415,-19 415,0 462,0 462,-19"/>
<text text-anchor="middle" x="438.5" y="-7" font-family="Helvetica,sans-Serif" font-size="10.00">queue</text>
</a>
</g>
</g>
<!-- Node1&#45;&gt;Node7 -->
<g id="edge6_Node000001_Node000007" class="edge">
<title>Node1&#45;&gt;Node7</title>
<g id="a_edge6_Node000001_Node000007"><a xlink:title=" ">
<path fill="none" stroke="#63b8ff" d="M383.1,-54.98C392.96,-47.07 407.85,-35.11 419.72,-25.58"/>
<polygon fill="#63b8ff" stroke="#63b8ff" points="422.1,-28.16 427.7,-19.17 417.71,-22.7 422.1,-28.16"/>
</a>
</g>
</g>
<!-- Node8 -->
<g id="Node000008" class="node">
<title>Node8</title>
<g id="a_Node000008"><a xlink:title=" ">
<polygon fill="#e0e0e0" stroke="#999999" points="528.5,-19 480.5,-19 480.5,0 528.5,0 528.5,-19"/>
<text text-anchor="middle" x="504.5" y="-7" font-family="Helvetica,sans-Serif" font-size="10.00">thread</text>
</a>
</g>
</g>
<!-- Node1&#45;&gt;Node8 -->
<g id="edge7_Node000001_Node000008" class="edge">
<title>Node1&#45;&gt;Node8</title>
<g id="a_edge7_Node000001_Node000008"><a xlink:title=" ">
<path fill="none" stroke="#63b8ff" d="M393.71,-54.98C415.23,-46.34 448.78,-32.87 473.33,-23.02"/>
<polygon fill="#63b8ff" stroke="#63b8ff" points="474.93,-26.14 482.91,-19.17 472.32,-19.65 474.93,-26.14"/>
</a>
</g>
</g>
<!-- Node9 -->
<g id="Node000009" class="node">
<title>Node9</title>
<g id="a_Node000009"><a xlink:title=" ">
<polygon fill="#e0e0e0" stroke="#999999" points="616,-19 547,-19 547,0 616,0 616,-19"/>
<text text-anchor="middle" x="581.5" y="-7" font-family="Helvetica,sans-Serif" font-size="10.00">type_traits</text>
</a>
</g>
</g>
<!-- Node1&#45;&gt;Node9 -->
<g id="edge8_Node000001_Node000009" class="edge">
<title>Node1&#45;&gt;Node9</title>
<g id="a_edge8_Node000001_Node000009"><a xlink:title=" ">
<path fill="none" stroke="#63b8ff" d="M406.08,-54.98C441.85,-45.91 498.62,-31.52 537.84,-21.57"/>
<polygon fill="#63b8ff" stroke="#63b8ff" points="538.82,-24.93 547.66,-19.08 537.1,-18.15 538.82,-24.93"/>
</a>
</g>
</g>
<!-- Node10 -->
<g id="Node000010" class="node">
<title>Node10</title>
<g id="a_Node000010"><a xlink:title=" ">
<polygon fill="#e0e0e0" stroke="#999999" points="679,-19 634,-19 634,0 679,0 679,-19"/>
<text text-anchor="middle" x="656.5" y="-7" font-family="Helvetica,sans-Serif" font-size="10.00">utility</text>
</a>
</g>
</g>
<!-- Node1&#45;&gt;Node10 -->
<g id="edge9_Node000001_Node000010" class="edge">
<title>Node1&#45;&gt;Node10</title>
<g id="a_edge9_Node000001_Node000010"><a xlink:title=" ">
<path fill="none" stroke="#63b8ff" d="M429.83,-54.98C478.99,-47.33 551.9,-35.13 623.75,-19.23"/>
<polygon fill="#63b8ff" stroke="#63b8ff" points="624.88,-22.57 633.87,-16.97 623.35,-15.74 624.88,-22.57"/>
</a>
</g>
</g>
</g>
</svg>
