<?xml version="1.0" encoding="UTF-8" standalone="no"?>
<!DOCTYPE svg PUBLIC "-//W3C//DTD SVG 1.1//EN"
 "http://www.w3.org/Graphics/SVG/1.1/DTD/svg11.dtd">
<!-- Generated by graphviz version 2.43.0 (0)
 -->
<!-- Title: xnetwork/tsp.hpp Pages: 1 -->
<svg width="1777pt" height="258pt"
 viewBox="0.00 0.00 1777.34 258.00" xmlns="http://www.w3.org/2000/svg" xmlns:xlink="http://www.w3.org/1999/xlink">
<g id="graph0" class="graph" transform="scale(1 1) rotate(0) translate(4 254)">
<title>xnetwork/tsp.hpp</title>
<!-- Node1 -->
<g id="Node000001" class="node">
<title>Node1</title>
<g id="a_Node000001"><a xlink:title="Traveling Salesman Problem (TSP) approximation algorithms.">
<polygon fill="#999999" stroke="#666666" points="1036.66,-250 935.66,-250 935.66,-231 1036.66,-231 1036.66,-250"/>
<text text-anchor="middle" x="986.16" y="-238" font-family="Helvetica,sans-Serif" font-size="10.00">xnetwork/tsp.hpp</text>
</a>
</g>
</g>
<!-- Node2 -->
<g id="Node000002" class="node">
<title>Node2</title>
<g id="a_Node000002"><a xlink:title=" ">
<polygon fill="#e0e0e0" stroke="#999999" points="155.16,-19 91.16,-19 91.16,0 155.16,0 155.16,-19"/>
<text text-anchor="middle" x="123.16" y="-7" font-family="Helvetica,sans-Serif" font-size="10.00">algorithm</text>
</a>
</g>
</g>
<!-- Node1&#45;&gt;Node2 -->
<g id="edge1_Node000001_Node000002" class="edge">
<title>Node1&#45;&gt;Node2</title>
<g id="a_edge1_Node000001_Node000002"><a xlink:title=" ">
<path fill="none" stroke="#63b8ff" d="M935.43,-239.74C775.69,-240.04 284.68,-237.42 132.16,-195 53.49,-173.12 -32.49,-122.71 13.16,-55 28.28,-32.58 56.81,-21.45 81.03,-15.93"/>
<polygon fill="#63b8ff" stroke="#63b8ff" points="81.98,-19.31 91.09,-13.89 80.59,-12.45 81.98,-19.31"/>
</a>
</g>
</g>
<!-- Node3 -->
<g id="Node000003" class="node">
<title>Node3</title>
<g id="a_Node000003"><a xlink:title=" ">
<polygon fill="#e0e0e0" stroke="#999999" points="465.16,-19 413.16,-19 413.16,0 465.16,0 465.16,-19"/>
<text text-anchor="middle" x="439.16" y="-7" font-family="Helvetica,sans-Serif" font-size="10.00">cassert</text>
</a>
</g>
</g>
<!-- Node1&#45;&gt;Node3 -->
<g id="edge2_Node000001_Node000003" class="edge">
<title>Node1&#45;&gt;Node3</title>
<g id="a_edge2_Node000001_Node000003"><a xlink:title=" ">
<path fill="none" stroke="#63b8ff" d="M935.64,-239.58C753.65,-238.6 136.82,-224.14 32.16,-74 27.33,-67.07 26.53,-61.29 32.16,-55 56.75,-27.58 308.23,-15.39 403.16,-11.74"/>
<polygon fill="#63b8ff" stroke="#63b8ff" points="403.29,-15.24 413.15,-11.37 403.03,-8.25 403.29,-15.24"/>
</a>
</g>
</g>
<!-- Node4 -->
<g id="Node000004" class="node">
<title>Node4</title>
<g id="a_Node000004"><a xlink:title=" ">
<polygon fill="#e0e0e0" stroke="#999999" points="94.66,-74 41.66,-74 41.66,-55 94.66,-55 94.66,-74"/>
<text text-anchor="middle" x="68.16" y="-62" font-family="Helvetica,sans-Serif" font-size="10.00">cstddef</text>
</a>
</g>
</g>
<!-- Node1&#45;&gt;Node4 -->
<g id="edge3_Node000001_Node000004" class="edge">
<title>Node1&#45;&gt;Node4</title>
<g id="a_edge3_Node000001_Node000004"><a xlink:title=" ">
<path fill="none" stroke="#63b8ff" d="M935.4,-234.09C824.43,-221.76 552.24,-188.83 328.16,-140 246.61,-122.23 152.96,-93.22 103.33,-77.14"/>
<polygon fill="#63b8ff" stroke="#63b8ff" points="104.31,-73.78 93.72,-74.01 102.14,-80.44 104.31,-73.78"/>
</a>
</g>
</g>
<!-- Node5 -->
<g id="Node000005" class="node">
<title>Node5</title>
<g id="a_Node000005"><a xlink:title=" ">
<polygon fill="#e0e0e0" stroke="#999999" points="581.16,-19 537.16,-19 537.16,0 581.16,0 581.16,-19"/>
<text text-anchor="middle" x="559.16" y="-7" font-family="Helvetica,sans-Serif" font-size="10.00">limits</text>
</a>
</g>
</g>
<!-- Node1&#45;&gt;Node5 -->
<g id="edge4_Node000001_Node000005" class="edge">
<title>Node1&#45;&gt;Node5</title>
<g id="a_edge4_Node000001_Node000005"><a xlink:title=" ">
<path fill="none" stroke="#63b8ff" d="M988.61,-230.6C996.2,-200.86 1015.97,-104.1 967.16,-55 940.8,-28.48 683.29,-15.53 591.48,-11.73"/>
<polygon fill="#63b8ff" stroke="#63b8ff" points="591.51,-8.23 581.37,-11.32 591.23,-15.22 591.51,-8.23"/>
</a>
</g>
</g>
<!-- Node6 -->
<g id="Node000006" class="node">
<title>Node6</title>
<g id="a_Node000006"><a xlink:title=" ">
<polygon fill="#e0e0e0" stroke="#999999" points="1345.16,-195 1241.16,-195 1241.16,-176 1345.16,-176 1345.16,-195"/>
<text text-anchor="middle" x="1293.16" y="-183" font-family="Helvetica,sans-Serif" font-size="10.00">py2cpp/range.hpp</text>
</a>
</g>
</g>
<!-- Node1&#45;&gt;Node6 -->
<g id="edge5_Node000001_Node000006" class="edge">
<title>Node1&#45;&gt;Node6</title>
<g id="a_edge5_Node000001_Node000006"><a xlink:title=" ">
<path fill="none" stroke="#63b8ff" d="M1035.49,-230.98C1089.45,-221.67 1175.94,-206.74 1233.64,-196.78"/>
<polygon fill="#63b8ff" stroke="#63b8ff" points="1234.45,-200.19 1243.71,-195.04 1233.26,-193.29 1234.45,-200.19"/>
</a>
</g>
</g>
<!-- Node7 -->
<g id="Node000007" class="node">
<title>Node7</title>
<g id="a_Node000007"><a xlink:title=" ">
<polygon fill="#e0e0e0" stroke="#999999" points="1454.66,-195 1363.66,-195 1363.66,-176 1454.66,-176 1454.66,-195"/>
<text text-anchor="middle" x="1409.16" y="-183" font-family="Helvetica,sans-Serif" font-size="10.00">py2cpp/set.hpp</text>
</a>
</g>
</g>
<!-- Node1&#45;&gt;Node7 -->
<g id="edge6_Node000001_Node000007" class="edge">
<title>Node1&#45;&gt;Node7</title>
<g id="a_edge6_Node000001_Node000007"><a xlink:title=" ">
<path fill="none" stroke="#63b8ff" d="M1036.83,-233.91C1105.91,-226.17 1233.77,-211.42 1353.49,-195.05"/>
<polygon fill="#63b8ff" stroke="#63b8ff" points="1354.13,-198.49 1363.56,-193.67 1353.18,-191.56 1354.13,-198.49"/>
</a>
</g>
</g>
<!-- Node8 -->
<g id="Node000008" class="node">
<title>Node8</title>
<g id="a_Node000008"><a xlink:title=" ">
<polygon fill="#e0e0e0" stroke="#999999" points="1505.16,-195 1473.16,-195 1473.16,-176 1505.16,-176 1505.16,-195"/>
<text text-anchor="middle" x="1489.16" y="-183" font-family="Helvetica,sans-Serif" font-size="10.00">set</text>
</a>
</g>
</g>
<!-- Node1&#45;&gt;Node8 -->
<g id="edge7_Node000001_Node000008" class="edge">
<title>Node1&#45;&gt;Node8</title>
<g id="a_edge7_Node000001_Node000008"><a xlink:title=" ">
<path fill="none" stroke="#63b8ff" d="M1036.99,-238.67C1123.16,-236.42 1303.34,-228.06 1462.92,-194.76"/>
<polygon fill="#63b8ff" stroke="#63b8ff" points="1463.86,-198.14 1472.91,-192.64 1462.4,-191.29 1463.86,-198.14"/>
</a>
</g>
</g>
<!-- Node9 -->
<g id="Node000009" class="node">
<title>Node9</title>
<g id="a_Node000009"><a xlink:title=" ">
<polygon fill="#e0e0e0" stroke="#999999" points="240.66,-19 199.66,-19 199.66,0 240.66,0 240.66,-19"/>
<text text-anchor="middle" x="220.16" y="-7" font-family="Helvetica,sans-Serif" font-size="10.00">tuple</text>
</a>
</g>
</g>
<!-- Node1&#45;&gt;Node9 -->
<g id="edge8_Node000001_Node000009" class="edge">
<title>Node1&#45;&gt;Node9</title>
<g id="a_edge8_Node000001_Node000009"><a xlink:title=" ">
<path fill="none" stroke="#63b8ff" d="M935.57,-238.02C791.45,-233.54 380.62,-218.99 248.16,-195 166.27,-180.17 135.9,-189.73 69.16,-140 35.05,-114.58 -1.36,-88.26 25.16,-55 35.42,-42.14 137.29,-23.94 189.56,-15.35"/>
<polygon fill="#63b8ff" stroke="#63b8ff" points="190.3,-18.78 199.61,-13.72 189.18,-11.87 190.3,-18.78"/>
</a>
</g>
</g>
<!-- Node10 -->
<g id="Node000010" class="node">
<title>Node10</title>
<g id="a_Node000010"><a xlink:title=" ">
<polygon fill="#e0e0e0" stroke="#999999" points="1047.66,-19 1000.66,-19 1000.66,0 1047.66,0 1047.66,-19"/>
<text text-anchor="middle" x="1024.16" y="-7" font-family="Helvetica,sans-Serif" font-size="10.00">vector</text>
</a>
</g>
</g>
<!-- Node1&#45;&gt;Node10 -->
<g id="edge9_Node000001_Node000010" class="edge">
<title>Node1&#45;&gt;Node10</title>
<g id="a_edge9_Node000001_Node000010"><a xlink:title=" ">
<path fill="none" stroke="#63b8ff" d="M989.42,-230.76C992.6,-221.87 997.37,-207.65 1000.16,-195 1013.36,-135.18 1020.17,-62.74 1022.82,-29.21"/>
<polygon fill="#63b8ff" stroke="#63b8ff" points="1026.33,-29.29 1023.59,-19.05 1019.35,-28.76 1026.33,-29.29"/>
</a>
</g>
</g>
<!-- Node11 -->
<g id="Node000011" class="node">
<title>Node11</title>
<g id="a_Node000011"><a xlink:href="graph_8hpp.html" target="_top" xlink:title="Undirected graph data structure for XNetwork.">
<polygon fill="white" stroke="#666666" points="1222.66,-195 1069.66,-195 1069.66,-176 1222.66,-176 1222.66,-195"/>
<text text-anchor="middle" x="1146.16" y="-183" font-family="Helvetica,sans-Serif" font-size="10.00">xnetwork/classes/graph.hpp</text>
</a>
</g>
</g>
<!-- Node1&#45;&gt;Node11 -->
<g id="edge10_Node000001_Node000011" class="edge">
<title>Node1&#45;&gt;Node11</title>
<g id="a_edge10_Node000001_Node000011"><a xlink:title=" ">
<path fill="none" stroke="#63b8ff" d="M1011.87,-230.98C1038.62,-222.13 1080.69,-208.19 1110.61,-198.28"/>
<polygon fill="#63b8ff" stroke="#63b8ff" points="1111.86,-201.55 1120.26,-195.08 1109.66,-194.9 1111.86,-201.55"/>
</a>
</g>
</g>
<!-- Node18 -->
<g id="Node000018" class="node">
<title>Node18</title>
<g id="a_Node000018"><a xlink:href="blossom_8hpp.html" target="_top" xlink:title="Minimum&#45;weight perfect matching via Edmonds&#39; blossom algorithm.">
<polygon fill="white" stroke="#666666" points="958.16,-195 800.16,-195 800.16,-176 958.16,-176 958.16,-195"/>
<text text-anchor="middle" x="879.16" y="-183" font-family="Helvetica,sans-Serif" font-size="10.00">xnetwork/detail/blossom.hpp</text>
</a>
</g>
</g>
<!-- Node1&#45;&gt;Node18 -->
<g id="edge20_Node000001_Node000018" class="edge">
<title>Node1&#45;&gt;Node18</title>
<g id="a_edge20_Node000001_Node000018"><a xlink:title=" ">
<path fill="none" stroke="#63b8ff" d="M968.97,-230.98C951.91,-222.54 925.53,-209.47 905.77,-199.68"/>
<polygon fill="#63b8ff" stroke="#63b8ff" points="907.18,-196.47 896.67,-195.17 904.08,-202.75 907.18,-196.47"/>
</a>
</g>
</g>
<!-- Node11&#45;&gt;Node3 -->
<g id="edge11_Node000011_Node000003" class="edge">
<title>Node11&#45;&gt;Node3</title>
<g id="a_edge11_Node000011_Node000003"><a xlink:title=" ">
<path fill="none" stroke="#63b8ff" d="M1133.34,-175.74C1120.36,-166.85 1099.76,-152.62 1082.16,-140 1030.51,-102.97 1026.67,-77.34 967.16,-55 875.53,-20.59 625.66,-27.65 528.16,-19 510.79,-17.46 491.52,-15.63 475.36,-14.07"/>
<polygon fill="#63b8ff" stroke="#63b8ff" points="475.54,-10.57 465.25,-13.08 474.86,-17.54 475.54,-10.57"/>
</a>
</g>
</g>
<!-- Node11&#45;&gt;Node10 -->
<g id="edge15_Node000011_Node000010" class="edge">
<title>Node11&#45;&gt;Node10</title>
<g id="a_edge15_Node000011_Node000010"><a xlink:title=" ">
<path fill="none" stroke="#63b8ff" d="M1223.05,-176.78C1226.13,-176.51 1229.17,-176.25 1232.16,-176 1350.22,-166.15 1835.83,-201.97 1761.16,-110 1716.05,-54.44 1196.23,-20.48 1057.84,-12.39"/>
<polygon fill="#63b8ff" stroke="#63b8ff" points="1058,-8.89 1047.81,-11.81 1057.59,-15.88 1058,-8.89"/>
</a>
</g>
</g>
<!-- Node12 -->
<g id="Node000012" class="node">
<title>Node12</title>
<g id="a_Node000012"><a xlink:title=" ">
<polygon fill="#e0e0e0" stroke="#999999" points="1357.16,-134.5 1307.16,-134.5 1307.16,-115.5 1357.16,-115.5 1357.16,-134.5"/>
<text text-anchor="middle" x="1332.16" y="-122.5" font-family="Helvetica,sans-Serif" font-size="10.00">cstdint</text>
</a>
</g>
</g>
<!-- Node11&#45;&gt;Node12 -->
<g id="edge12_Node000011_Node000012" class="edge">
<title>Node11&#45;&gt;Node12</title>
<g id="a_edge12_Node000011_Node000012"><a xlink:title=" ">
<path fill="none" stroke="#63b8ff" d="M1179.1,-175.94C1210.1,-167.63 1257.69,-154.21 1298.16,-140 1299.78,-139.43 1301.43,-138.83 1303.09,-138.21"/>
<polygon fill="#63b8ff" stroke="#63b8ff" points="1304.5,-141.42 1312.52,-134.5 1301.94,-134.9 1304.5,-141.42"/>
</a>
</g>
</g>
<!-- Node13 -->
<g id="Node000013" class="node">
<title>Node13</title>
<g id="a_Node000013"><a xlink:title=" ">
<polygon fill="#e0e0e0" stroke="#999999" points="1201.66,-134.5 1090.66,-134.5 1090.66,-115.5 1201.66,-115.5 1201.66,-134.5"/>
<text text-anchor="middle" x="1146.16" y="-122.5" font-family="Helvetica,sans-Serif" font-size="10.00">py2cpp/py2cpp.hpp</text>
</a>
</g>
</g>
<!-- Node11&#45;&gt;Node13 -->
<g id="edge13_Node000011_Node000013" class="edge">
<title>Node11&#45;&gt;Node13</title>
<g id="a_edge13_Node000011_Node000013"><a xlink:title=" ">
<path fill="none" stroke="#63b8ff" d="M1146.16,-175.87C1146.16,-167.75 1146.16,-155.31 1146.16,-144.89"/>
<polygon fill="#63b8ff" stroke="#63b8ff" points="1149.66,-144.67 1146.16,-134.67 1142.66,-144.67 1149.66,-144.67"/>
</a>
</g>
</g>
<!-- Node14 -->
<g id="Node000014" class="node">
<title>Node14</title>
<g id="a_Node000014"><a xlink:title=" ">
<polygon fill="#e0e0e0" stroke="#999999" points="1288.66,-134.5 1219.66,-134.5 1219.66,-115.5 1288.66,-115.5 1288.66,-134.5"/>
<text text-anchor="middle" x="1254.16" y="-122.5" font-family="Helvetica,sans-Serif" font-size="10.00">type_traits</text>
</a>
</g>
</g>
<!-- Node11&#45;&gt;Node14 -->
<g id="edge14_Node000011_Node000014" class="edge">
<title>Node11&#45;&gt;Node14</title>
<g id="a_edge14_Node000011_Node000014"><a xlink:title=" ">
<path fill="none" stroke="#63b8ff" d="M1162.1,-175.87C1179.81,-166.28 1208.62,-150.67 1229.3,-139.47"/>
<polygon fill="#63b8ff" stroke="#63b8ff" points="1231.04,-142.51 1238.16,-134.67 1227.7,-136.35 1231.04,-142.51"/>
</a>
</g>
</g>
<!-- Node15 -->
<g id="Node000015" class="node">
<title>Node15</title>
<g id="a_Node000015"><a xlink:href="coreviews_8hpp.html" target="_top" xlink:title="Read&#45;only view classes for graph data structures.">
<polygon fill="white" stroke="#666666" points="1550.66,-134.5 1375.66,-134.5 1375.66,-115.5 1550.66,-115.5 1550.66,-134.5"/>
<text text-anchor="middle" x="1463.16" y="-122.5" font-family="Helvetica,sans-Serif" font-size="10.00">xnetwork/classes/coreviews.hpp</text>
</a>
</g>
</g>
<!-- Node11&#45;&gt;Node15 -->
<g id="edge16_Node000011_Node000015" class="edge">
<title>Node11&#45;&gt;Node15</title>
<g id="a_edge16_Node000011_Node000015"><a xlink:title=" ">
<path fill="none" stroke="#63b8ff" d="M1192.26,-175.99C1249.19,-165.49 1345.98,-147.62 1407.14,-136.34"/>
<polygon fill="#63b8ff" stroke="#63b8ff" points="1407.81,-139.77 1417.01,-134.52 1406.54,-132.89 1407.81,-139.77"/>
</a>
</g>
</g>
<!-- Node17 -->
<g id="Node000017" class="node">
<title>Node17</title>
<g id="a_Node000017"><a xlink:href="reportviews_8hpp.html" target="_top" xlink:title="View classes for nodes, edges, and degrees in XNetwork graphs.">
<polygon fill="white" stroke="#666666" points="1751.66,-134.5 1568.66,-134.5 1568.66,-115.5 1751.66,-115.5 1751.66,-134.5"/>
<text text-anchor="middle" x="1660.16" y="-122.5" font-family="Helvetica,sans-Serif" font-size="10.00">xnetwork/classes/reportviews.hpp</text>
</a>
</g>
</g>
<!-- Node11&#45;&gt;Node17 -->
<g id="edge18_Node000011_Node000017" class="edge">
<title>Node11&#45;&gt;Node17</title>
<g id="a_edge18_Node000011_Node000017"><a xlink:title=" ">
<path fill="none" stroke="#63b8ff" d="M1222.83,-176.56C1324.05,-166.02 1496.85,-147.83 1560.16,-140 1570.32,-138.74 1581.04,-137.33 1591.54,-135.9"/>
<polygon fill="#63b8ff" stroke="#63b8ff" points="1592.08,-139.36 1601.51,-134.53 1591.13,-132.43 1592.08,-139.36"/>
</a>
</g>
</g>
<!-- Node16 -->
<g id="Node000016" class="node">
<title>Node16</title>
<g id="a_Node000016"><a xlink:title=" ">
<polygon fill="#e0e0e0" stroke="#999999" points="1489.66,-74 1436.66,-74 1436.66,-55 1489.66,-55 1489.66,-74"/>
<text text-anchor="middle" x="1463.16" y="-62" font-family="Helvetica,sans-Serif" font-size="10.00">iterator</text>
</a>
</g>
</g>
<!-- Node15&#45;&gt;Node16 -->
<g id="edge17_Node000015_Node000016" class="edge">
<title>Node15&#45;&gt;Node16</title>
<g id="a_edge17_Node000015_Node000016"><a xlink:title=" ">
<path fill="none" stroke="#63b8ff" d="M1463.16,-115.37C1463.16,-107.25 1463.16,-94.81 1463.16,-84.39"/>
<polygon fill="#63b8ff" stroke="#63b8ff" points="1466.66,-84.17 1463.16,-74.17 1459.66,-84.17 1466.66,-84.17"/>
</a>
</g>
</g>
<!-- Node17&#45;&gt;Node16 -->
<g id="edge19_Node000017_Node000016" class="edge">
<title>Node17&#45;&gt;Node16</title>
<g id="a_edge19_Node000017_Node000016"><a xlink:title=" ">
<path fill="none" stroke="#63b8ff" d="M1631.52,-115.49C1596.64,-105.14 1537.7,-87.63 1499.62,-76.33"/>
<polygon fill="#63b8ff" stroke="#63b8ff" points="1500.53,-72.94 1489.95,-73.45 1498.54,-79.66 1500.53,-72.94"/>
</a>
</g>
</g>
<!-- Node18&#45;&gt;Node4 -->
<g id="edge21_Node000018_Node000004" class="edge">
<title>Node18&#45;&gt;Node4</title>
<g id="a_edge21_Node000018_Node000004"><a xlink:title=" ">
<path fill="none" stroke="#63b8ff" d="M802.63,-176C729.47,-167.65 616.13,-154.14 518.16,-140 364.15,-117.77 181.43,-85.77 104.82,-72.1"/>
<polygon fill="#63b8ff" stroke="#63b8ff" points="105.19,-68.61 94.73,-70.29 103.96,-75.5 105.19,-68.61"/>
</a>
</g>
</g>
<!-- Node18&#45;&gt;Node10 -->
<g id="edge23_Node000018_Node000010" class="edge">
<title>Node18&#45;&gt;Node10</title>
<g id="a_edge23_Node000018_Node000010"><a xlink:title=" ">
<path fill="none" stroke="#63b8ff" d="M887.76,-175.84C896.41,-167.02 910.03,-152.84 921.16,-140 955.18,-100.76 992.52,-52.35 1011.53,-27.3"/>
<polygon fill="#63b8ff" stroke="#63b8ff" points="1014.42,-29.28 1017.66,-19.19 1008.84,-25.06 1014.42,-29.28"/>
</a>
</g>
</g>
<!-- Node19 -->
<g id="Node000019" class="node">
<title>Node19</title>
<g id="a_Node000019"><a xlink:title=" ">
<polygon fill="#e0e0e0" stroke="#999999" points="957.66,-74 912.66,-74 912.66,-55 957.66,-55 957.66,-74"/>
<text text-anchor="middle" x="935.16" y="-62" font-family="Helvetica,sans-Serif" font-size="10.00">utility</text>
</a>
</g>
</g>
<!-- Node18&#45;&gt;Node19 -->
<g id="edge22_Node000018_Node000019" class="edge">
<title>Node18&#45;&gt;Node19</title>
<g id="a_edge22_Node000018_Node000019"><a xlink:title=" ">
<path fill="none" stroke="#63b8ff" d="M883.19,-175.94C892.27,-156.65 914.49,-109.44 926.73,-83.43"/>
<polygon fill="#63b8ff" stroke="#63b8ff" points="929.93,-84.84 931.02,-74.3 923.6,-81.86 929.93,-84.84"/>
</a>
</g>
</g>
<!-- Node20 -->
<g id="Node000020" class="node">
<title>Node20</title>
<g id="a_Node000020"><a xlink:href="mwmatching_8hpp.html" target="_top" xlink:title=" ">
<polygon fill="white" stroke="#666666" points="687.16,-140 527.16,-140 527.16,-110 687.16,-110 687.16,-140"/>
<text text-anchor="start" x="535.16" y="-128" font-family="Helvetica,sans-Serif" font-size="10.00">xnetwork/detail/mwmatching</text>
<text text-anchor="middle" x="607.16" y="-117" font-family="Helvetica,sans-Serif" font-size="10.00">/mwmatching.hpp</text>
</a>
</g>
</g>
<!-- Node18&#45;&gt;Node20 -->
<g id="edge24_Node000018_Node000020" class="edge">
<title>Node18&#45;&gt;Node20</title>
<g id="a_edge24_Node000018_Node000020"><a xlink:title=" ">
<path fill="none" stroke="#63b8ff" d="M839.61,-175.99C798.52,-167.16 733.22,-153.11 682.28,-142.16"/>
<polygon fill="#63b8ff" stroke="#63b8ff" points="682.81,-138.69 672.29,-140.01 681.33,-145.53 682.81,-138.69"/>
</a>
</g>
</g>
<!-- Node20&#45;&gt;Node2 -->
<g id="edge25_Node000020_Node000002" class="edge">
<title>Node20&#45;&gt;Node2</title>
<g id="a_edge25_Node000020_Node000002"><a xlink:title=" ">
<path fill="none" stroke="#63b8ff" d="M526.95,-117.68C397.83,-107.19 156.75,-86.13 142.16,-74 129.18,-63.2 124.84,-43.92 123.5,-29.42"/>
<polygon fill="#63b8ff" stroke="#63b8ff" points="126.97,-28.88 122.96,-19.08 119.98,-29.25 126.97,-28.88"/>
</a>
</g>
</g>
<!-- Node20&#45;&gt;Node3 -->
<g id="edge26_Node000020_Node000003" class="edge">
<title>Node20&#45;&gt;Node3</title>
<g id="a_edge26_Node000020_Node000003"><a xlink:title=" ">
<path fill="none" stroke="#63b8ff" d="M558.39,-109.92C535.59,-101.8 508.95,-89.99 488.16,-74 471.66,-61.31 457.72,-41.78 448.98,-27.74"/>
<polygon fill="#63b8ff" stroke="#63b8ff" points="451.92,-25.83 443.79,-19.04 445.91,-29.42 451.92,-25.83"/>
</a>
</g>
</g>
<!-- Node20&#45;&gt;Node4 -->
<g id="edge28_Node000020_Node000004" class="edge">
<title>Node20&#45;&gt;Node4</title>
<g id="a_edge28_Node000020_Node000004"><a xlink:title=" ">
<path fill="none" stroke="#63b8ff" d="M527.06,-118.54C428.39,-111.23 255.82,-96.5 109.16,-74 107.87,-73.8 106.56,-73.59 105.23,-73.37"/>
<polygon fill="#63b8ff" stroke="#63b8ff" points="105.47,-69.85 95,-71.48 104.2,-76.73 105.47,-69.85"/>
</a>
</g>
</g>
<!-- Node20&#45;&gt;Node5 -->
<g id="edge31_Node000020_Node000005" class="edge">
<title>Node20&#45;&gt;Node5</title>
<g id="a_edge31_Node000020_Node000005"><a xlink:title=" ">
<path fill="none" stroke="#63b8ff" d="M544.48,-109.91C525.73,-102.45 507.23,-91.13 496.16,-74 483.4,-54.26 507.76,-35.66 529.8,-23.76"/>
<polygon fill="#63b8ff" stroke="#63b8ff" points="531.67,-26.74 538.99,-19.08 528.49,-20.5 531.67,-26.74"/>
</a>
</g>
</g>
<!-- Node20&#45;&gt;Node9 -->
<g id="edge35_Node000020_Node000009" class="edge">
<title>Node20&#45;&gt;Node9</title>
<g id="a_edge35_Node000020_Node000009"><a xlink:title=" ">
<path fill="none" stroke="#63b8ff" d="M562.88,-110C517.59,-95.78 445.14,-73.3 382.16,-55 336.42,-41.71 283.11,-27.26 250.5,-18.55"/>
<polygon fill="#63b8ff" stroke="#63b8ff" points="251.24,-15.12 240.68,-15.93 249.44,-21.89 251.24,-15.12"/>
</a>
</g>
</g>
<!-- Node20&#45;&gt;Node10 -->
<g id="edge37_Node000020_Node000010" class="edge">
<title>Node20&#45;&gt;Node10</title>
<g id="a_edge37_Node000020_Node000010"><a xlink:title=" ">
<path fill="none" stroke="#63b8ff" d="M687.3,-114C738.95,-106.21 807.07,-93.41 865.16,-74 883.45,-67.89 886.44,-62.58 904.16,-55 933.07,-42.63 966.69,-30.34 990.97,-21.82"/>
<polygon fill="#63b8ff" stroke="#63b8ff" points="992.15,-25.12 1000.44,-18.52 989.85,-18.51 992.15,-25.12"/>
</a>
</g>
</g>
<!-- Node20&#45;&gt;Node16 -->
<g id="edge30_Node000020_Node000016" class="edge">
<title>Node20&#45;&gt;Node16</title>
<g id="a_edge30_Node000020_Node000016"><a xlink:title=" ">
<path fill="none" stroke="#63b8ff" d="M687.31,-118.52C867.2,-106.23 1297.41,-76.83 1426.15,-68.03"/>
<polygon fill="#63b8ff" stroke="#63b8ff" points="1426.55,-71.51 1436.28,-67.34 1426.07,-64.53 1426.55,-71.51"/>
</a>
</g>
</g>
<!-- Node20&#45;&gt;Node19 -->
<g id="edge36_Node000020_Node000019" class="edge">
<title>Node20&#45;&gt;Node19</title>
<g id="a_edge36_Node000020_Node000019"><a xlink:title=" ">
<path fill="none" stroke="#63b8ff" d="M687.36,-111.45C745.93,-101.99 827.17,-88.24 898.16,-74 899.62,-73.71 901.1,-73.4 902.6,-73.09"/>
<polygon fill="#63b8ff" stroke="#63b8ff" points="903.49,-76.47 912.51,-70.91 901.99,-69.64 903.49,-76.47"/>
</a>
</g>
</g>
<!-- Node21 -->
<g id="Node000021" class="node">
<title>Node21</title>
<g id="a_Node000021"><a xlink:title=" ">
<polygon fill="#e0e0e0" stroke="#999999" points="678.66,-74 631.66,-74 631.66,-55 678.66,-55 678.66,-74"/>
<text text-anchor="middle" x="655.16" y="-62" font-family="Helvetica,sans-Serif" font-size="10.00">cmath</text>
</a>
</g>
</g>
<!-- Node20&#45;&gt;Node21 -->
<g id="edge27_Node000020_Node000021" class="edge">
<title>Node20&#45;&gt;Node21</title>
<g id="a_edge27_Node000020_Node000021"><a xlink:title=" ">
<path fill="none" stroke="#63b8ff" d="M618.78,-109.84C625.61,-101.52 634.27,-90.96 641.43,-82.23"/>
<polygon fill="#63b8ff" stroke="#63b8ff" points="644.33,-84.22 647.97,-74.27 638.92,-79.78 644.33,-84.22"/>
</a>
</g>
</g>
<!-- Node22 -->
<g id="Node000022" class="node">
<title>Node22</title>
<g id="a_Node000022"><a xlink:title=" ">
<polygon fill="#e0e0e0" stroke="#999999" points="743.66,-74 696.66,-74 696.66,-55 743.66,-55 743.66,-74"/>
<text text-anchor="middle" x="720.16" y="-62" font-family="Helvetica,sans-Serif" font-size="10.00">deque</text>
</a>
</g>
</g>
<!-- Node20&#45;&gt;Node22 -->
<g id="edge29_Node000020_Node000022" class="edge">
<title>Node20&#45;&gt;Node22</title>
<g id="a_edge29_Node000020_Node000022"><a xlink:title=" ">
<path fill="none" stroke="#63b8ff" d="M634.23,-109.99C652.41,-100.58 676.23,-88.24 694.18,-78.95"/>
<polygon fill="#63b8ff" stroke="#63b8ff" points="696.2,-81.84 703.48,-74.14 692.99,-75.63 696.2,-81.84"/>
</a>
</g>
</g>
<!-- Node23 -->
<g id="Node000023" class="node">
<title>Node23</title>
<g id="a_Node000023"><a xlink:title=" ">
<polygon fill="#e0e0e0" stroke="#999999" points="794.16,-74 762.16,-74 762.16,-55 794.16,-55 794.16,-74"/>
<text text-anchor="middle" x="778.16" y="-62" font-family="Helvetica,sans-Serif" font-size="10.00">list</text>
</a>
</g>
</g>
<!-- Node20&#45;&gt;Node23 -->
<g id="edge32_Node000020_Node000023" class="edge">
<title>Node20&#45;&gt;Node23</title>
<g id="a_edge32_Node000020_Node000023"><a xlink:title=" ">
<path fill="none" stroke="#63b8ff" d="M648.12,-109.99C680.54,-98.9 724.81,-83.75 752.43,-74.3"/>
<polygon fill="#63b8ff" stroke="#63b8ff" points="753.81,-77.53 762.14,-70.98 751.55,-70.91 753.81,-77.53"/>
</a>
</g>
</g>
<!-- Node24 -->
<g id="Node000024" class="node">
<title>Node24</title>
<g id="a_Node000024"><a xlink:title=" ">
<polygon fill="#e0e0e0" stroke="#999999" points="855.66,-74 812.66,-74 812.66,-55 855.66,-55 855.66,-74"/>
<text text-anchor="middle" x="834.16" y="-62" font-family="Helvetica,sans-Serif" font-size="10.00">stack</text>
</a>
</g>
</g>
<!-- Node20&#45;&gt;Node24 -->
<g id="edge33_Node000020_Node000024" class="edge">
<title>Node20&#45;&gt;Node24</title>
<g id="a_edge33_Node000020_Node000024"><a xlink:title=" ">
<path fill="none" stroke="#63b8ff" d="M663.42,-109.93C700.33,-100.64 749.92,-88.03 802.62,-74.11"/>
<polygon fill="#63b8ff" stroke="#63b8ff" points="803.73,-77.44 812.5,-71.49 801.93,-70.67 803.73,-77.44"/>
</a>
</g>
</g>
<!-- Node25 -->
<g id="Node000025" class="node">
<title>Node25</title>
<g id="a_Node000025"><a xlink:title=" ">
<polygon fill="#e0e0e0" stroke="#999999" points="372.66,-74 307.66,-74 307.66,-55 372.66,-55 372.66,-74"/>
<text text-anchor="middle" x="340.16" y="-62" font-family="Helvetica,sans-Serif" font-size="10.00">stdexcept</text>
</a>
</g>
</g>
<!-- Node20&#45;&gt;Node25 -->
<g id="edge34_Node000020_Node000025" class="edge">
<title>Node20&#45;&gt;Node25</title>
<g id="a_edge34_Node000020_Node000025"><a xlink:title=" ">
<path fill="none" stroke="#63b8ff" d="M543.21,-109.99C493.51,-99.1 425.96,-84.3 382.7,-74.82"/>
<polygon fill="#63b8ff" stroke="#63b8ff" points="383.31,-71.37 372.79,-72.65 381.81,-78.21 383.31,-71.37"/>
</a>
</g>
</g>
<!-- Node26 -->
<g id="Node000026" class="node">
<title>Node26</title>
<g id="a_Node000026"><a xlink:href="concatenable__queue_8hpp.html" target="_top" xlink:title=" ">
<polygon fill="white" stroke="#666666" points="289.16,-74 151.16,-74 151.16,-55 289.16,-55 289.16,-74"/>
<text text-anchor="middle" x="220.16" y="-62" font-family="Helvetica,sans-Serif" font-size="10.00">concatenable_queue.hpp</text>
</a>
</g>
</g>
<!-- Node20&#45;&gt;Node26 -->
<g id="edge38_Node000020_Node000026" class="edge">
<title>Node20&#45;&gt;Node26</title>
<g id="a_edge38_Node000020_Node000026"><a xlink:title=" ">
<path fill="none" stroke="#63b8ff" d="M526.98,-111.88C455.8,-101.12 353.04,-85.59 286.42,-75.52"/>
<polygon fill="#63b8ff" stroke="#63b8ff" points="286.87,-72.04 276.46,-74.01 285.82,-78.96 286.87,-72.04"/>
</a>
</g>
</g>
<!-- Node27 -->
<g id="Node000027" class="node">
<title>Node27</title>
<g id="a_Node000027"><a xlink:href="priority__queue_8hpp.html" target="_top" xlink:title=" ">
<polygon fill="white" stroke="#666666" points="613.16,-74 505.16,-74 505.16,-55 613.16,-55 613.16,-74"/>
<text text-anchor="middle" x="559.16" y="-62" font-family="Helvetica,sans-Serif" font-size="10.00">priority_queue.hpp</text>
</a>
</g>
</g>
<!-- Node20&#45;&gt;Node27 -->
<g id="edge42_Node000020_Node000027" class="edge">
<title>Node20&#45;&gt;Node27</title>
<g id="a_edge42_Node000020_Node000027"><a xlink:title=" ">
<path fill="none" stroke="#63b8ff" d="M595.54,-109.84C588.72,-101.52 580.05,-90.96 572.89,-82.23"/>
<polygon fill="#63b8ff" stroke="#63b8ff" points="575.41,-79.78 566.36,-74.27 569.99,-84.22 575.41,-79.78"/>
</a>
</g>
</g>
<!-- Node26&#45;&gt;Node2 -->
<g id="edge39_Node000026_Node000002" class="edge">
<title>Node26&#45;&gt;Node2</title>
<g id="a_edge39_Node000026_Node000002"><a xlink:title=" ">
<path fill="none" stroke="#63b8ff" d="M204.58,-54.98C189.4,-46.69 166.07,-33.94 148.27,-24.22"/>
<polygon fill="#63b8ff" stroke="#63b8ff" points="149.49,-20.89 139.03,-19.17 146.13,-27.04 149.49,-20.89"/>
</a>
</g>
</g>
<!-- Node26&#45;&gt;Node3 -->
<g id="edge40_Node000026_Node000003" class="edge">
<title>Node26&#45;&gt;Node3</title>
<g id="a_edge40_Node000026_Node000003"><a xlink:title=" ">
<path fill="none" stroke="#63b8ff" d="M255.35,-54.98C295.92,-45.17 362.27,-29.11 403.18,-19.21"/>
<polygon fill="#63b8ff" stroke="#63b8ff" points="404.1,-22.59 413,-16.83 402.46,-15.78 404.1,-22.59"/>
</a>
</g>
</g>
<!-- Node26&#45;&gt;Node9 -->
<g id="edge41_Node000026_Node000009" class="edge">
<title>Node26&#45;&gt;Node9</title>
<g id="a_edge41_Node000026_Node000009"><a xlink:title=" ">
<path fill="none" stroke="#63b8ff" d="M220.16,-54.75C220.16,-47.8 220.16,-37.85 220.16,-29.13"/>
<polygon fill="#63b8ff" stroke="#63b8ff" points="223.66,-29.09 220.16,-19.09 216.66,-29.09 223.66,-29.09"/>
</a>
</g>
</g>
<!-- Node27&#45;&gt;Node3 -->
<g id="edge43_Node000027_Node000003" class="edge">
<title>Node27&#45;&gt;Node3</title>
<g id="a_edge43_Node000027_Node000003"><a xlink:title=" ">
<path fill="none" stroke="#63b8ff" d="M539.88,-54.98C520.49,-46.42 490.36,-33.11 468.1,-23.28"/>
<polygon fill="#63b8ff" stroke="#63b8ff" points="469.36,-20.01 458.79,-19.17 466.53,-26.41 469.36,-20.01"/>
</a>
</g>
</g>
<!-- Node27&#45;&gt;Node5 -->
<g id="edge44_Node000027_Node000005" class="edge">
<title>Node27&#45;&gt;Node5</title>
<g id="a_edge44_Node000027_Node000005"><a xlink:title=" ">
<path fill="none" stroke="#63b8ff" d="M559.16,-54.75C559.16,-47.8 559.16,-37.85 559.16,-29.13"/>
<polygon fill="#63b8ff" stroke="#63b8ff" points="562.66,-29.09 559.16,-19.09 555.66,-29.09 562.66,-29.09"/>
</a>
</g>
</g>
<!-- Node27&#45;&gt;Node10 -->
<g id="edge45_Node000027_Node000010" class="edge">
<title>Node27&#45;&gt;Node10</title>
<g id="a_edge45_Node000027_Node000010"><a xlink:title=" ">
<path fill="none" stroke="#63b8ff" d="M613.27,-56.23C616.62,-55.81 619.94,-55.39 623.16,-55 759.12,-38.43 921.34,-21.21 990.38,-14"/>
<polygon fill="#63b8ff" stroke="#63b8ff" points="991.06,-17.45 1000.64,-12.93 990.33,-10.49 991.06,-17.45"/>
</a>
</g>
</g>
</g>
</svg>
